# xmcd
#
# Track frame offsets:
#	150
#	16387
#	28520
#	41735
#	53000
#	68877
#	78637
#	96422
#	107367
#	122360
#	133915
#	148887
#	160577
#	185957
#	196520
#	208325
#	220107
#	231192
#
# Disc length: 3237
#
# Revision: 1
# Processed by: cddbd v1.5.1PL0 Copyright (c) Steve Scherf et al.
# Submitted via: CD-DA_X-Tractor v0.21
# Normalized: r0:TDELIM( - )
#
DISCID=030ca312
DTITLE=Various Artist - Country Tracks Vol 8
DYEAR=1900
DGENRE=
TTITLE0=The Charlie Daniels Band - The Devil Went Down To Georgia
TTITLE1=Jimmy Dean - Sixteen Tons
TTITLE2=Charlie Rich - Behind Closed Doors
TTITLE3=Stonewall Jackson - Waterloo
TTITLE4=Willie Nelson - Always On My Mind
TTITLE5=Ned Miller - From A Jack to A King
TTITLE6=Marty Robbins - Big Iron
TTITLE7=Wanda Jackson - Sweet Nothin's
TTITLE8=Ray Price - San Antonio Rose
TTITLE9=Sweethearts Of The Rodeo - Hey Doll Baby
TTITLE10=Tammy Cash - The Cowboy And The Lady
TTITLE11=Tammy Wynette - I Don't Wanna Play House
TTITLE12=David Allen Coe - Desperados Waiting For A Train
TTITLE13=Tanya Tucker - Would You Lay With Me In A Field Of Stone
TTITLE14=Billy Walker - Make The World Go Away
TTITLE15=Kenny Rogers and The First Edition - Elvira
TTITLE16=Roger Miller - King Of The road
TTITLE17=Gene Autry - Back In The Saddle Again
EXTD=
EXTT0=
EXTT1=
EXTT2=
EXTT3=
EXTT4=
EXTT5=
EXTT6=
EXTT7=
EXTT8=
EXTT9=
EXTT10=
EXTT11=
EXTT12=
EXTT13=
EXTT14=
EXTT15=
EXTT16=
EXTT17=
PLAYORDER=
